<?xml version="1.0" encoding="utf-8"?>
<svg width="167.22798px" height="161px" viewBox="0 0 167.22798 161" version="1.1" xmlns:xlink="http://www.w3.org/1999/xlink" xmlns="http://www.w3.org/2000/svg">
  <g id="Wobblewall">
    <path d="M110 80C119.942 80 128 88.0575 128 98L128 143C128 152.942 119.942 161 110 161L18 161C8.05753 161 4.34771e-06 152.942 3.75509e-06 143L1.07288e-06 98C4.80266e-07 88.0575 8.05752 80 18 80L110 80Z" id="Rectangle" fill="#000000" stroke="none" />
    <path d="M115 22C123.285 22 130 28.7146 130 37L130 92C130 100.285 123.285 107 115 107L71 107C62.7146 107 56 100.285 56 92L56 37C56 28.7146 62.7146 22 71 22L115 22Z" id="Rectangle-2" fill="#00ADBD" stroke="none" />
    <path d="M154.728 21.6506L129.123 65.3013L104.123 22L154.728 21.6506Z" id="Triangle" fill="#00C7D9" fill-rule="evenodd" stroke="none" />
    <path d="M58 99L128 99L128 111L58 111L58 99Z" id="Rectangle-3" fill="#0676A2" fill-rule="evenodd" stroke="none" />
    <path d="M127 110C128.657 110 130 111.343 130 113L130 135C130 136.657 128.657 138 127 138L59 138C57.3429 138 56 136.657 56 135L56 113C56 111.343 57.3429 110 59 110L127 110Z" id="Rectangle-4" fill="#00ADBD" stroke="none" />
  </g>
</svg>